<svg xmlns="http://www.w3.org/2000/svg" width="129.017" height="204.04" viewBox="0 0 129.017 204.04">
  <g id="humaaans_standing-6" data-name="humaaans/standing-6" transform="translate(-55.081 -33.583)">
    <g id="humaaan-3" transform="translate(55.081 33.898)">
      <g id="Bottom_Standing_Sprint" data-name="Bottom/Standing/Sprint" transform="translate(0 73.695)">
        <path id="Leg" d="M57.956,4.084c-9.477,7.7-6.524,74.454-7.159,75.3q-.424.564-44.808,9.955L7.215,94.5q51.844-3.036,54.9-6.884,4.375-5.51,11.261-61.28Z" transform="matrix(0.574, -0.819, 0.819, 0.574, 7.888, 56.775)" fill="#b28b67" fill-rule="evenodd"/>
        <path id="Pant" d="M5.818,86.8l2.168,8.3c25.724,2.7,42.735-1.1,48.763-6.8q6.028-5.7,11.287-61.114L51.538,3.632c-22.547,16.986-9.715,71.786-10.3,73.048S27.065,79.061,5.818,86.8Z" transform="matrix(0.574, -0.819, 0.819, 0.574, 11.362, 51.807)" fill="#2f3676" fill-rule="evenodd"/>
        <g id="Accessories_Shoe_Flat-Sneaker" data-name="Accessories/Shoe/Flat-Sneaker" transform="matrix(0.94, 0.342, -0.342, 0.94, 83.062, 99.643)">
          <path id="shoe" d="M.507,2.515A10.7,10.7,0,0,0-.285,5.831,25.432,25.432,0,0,0,.183,9.747l27.449.211q1.043-3.594-1.265-3.9t-3.834-.548L9.732-.379a.477.477,0,0,0-.641.246L9.086-.12,8.281,1.9a8.532,8.532,0,0,1-3.461.987,7.84,7.84,0,0,1-3-.915h0A.955.955,0,0,0,.533,2.45Q.519,2.482.507,2.515Z" transform="translate(0 0)" fill="#e4e4e4" fill-rule="evenodd"/>
        </g>
        <path id="Leg-2" data-name="Leg" d="M79.469,0,54.357,61.5,29.676,113.484H35.5L99.208,0Z" transform="translate(-28.513 11.643)" fill="#997659" fill-rule="evenodd"/>
        <g id="Accessories_Shoe_Flat-Sneaker-2" data-name="Accessories/Shoe/Flat-Sneaker" transform="translate(0 119.759)">
          <path id="shoe-2" data-name="shoe" d="M1.9,23.957a10.882,10.882,0,0,0-.814,3.331,25.511,25.511,0,0,0,.437,3.923H28.892q1.067-3.612-1.232-3.9t-3.819-.52L11.119,20.984a.481.481,0,0,0-.641.252l-.005.013L9.655,23.28A8.571,8.571,0,0,1,6.2,24.3,7.693,7.693,0,0,1,3.211,23.4h0a.961.961,0,0,0-1.287.489Q1.91,23.924,1.9,23.957Z" transform="translate(-1.083 -20.941)" fill="#e4e4e4" fill-rule="evenodd"/>
        </g>
        <path id="Pant-2" data-name="Pant" d="M34.651,102.684l12.939,2.475c10-15,51.874-76.521,56.464-105.159H75.249C59.918,20.7,44.187,87.433,34.651,102.684Z" transform="translate(-31.259 11.643)" fill="#5c63ab" fill-rule="evenodd"/>
      </g>
      <g id="Head_Front_Wavy" data-name="Head/Front/Wavy" transform="translate(43.384 0) rotate(14)">
        <g id="Head" transform="translate(18.935 4.051)">
          <path id="Path_1" data-name="Path 1" d="M3.3,16.683A13.558,13.558,0,0,1-.256,7.089c.672-10.522,15.162-8.125,18.007-2.8S20.336,23.1,16.7,24.024c-1.449.371-4.547-.574-7.7-2.512l2.053,14.155L-.612,35.6Z" transform="translate(0 0)" fill="#b28b67" fill-rule="evenodd"/>
        </g>
        <path id="hair" d="M37.8,10.736a13.744,13.744,0,0,0-.637-2.108,10.026,10.026,0,0,0-1.24-2.318,17.677,17.677,0,0,0-3.265-3.582A10.622,10.622,0,0,0,24.79.127a7.918,7.918,0,0,0-3.93,1.6c-1.047.812-2.051,2.01-3.412,2.088C15.968,3.9,14.6,2.571,13.41,1.747A10.881,10.881,0,0,0,9.071-.131a7.083,7.083,0,0,0-6.879,2.6C.282,4.774-1.1,8.164.182,11.241A4,4,0,0,0,1.16,12.7c.4.368,1.009.76,1.173,1.346.175.622-.332,1.42-.528,1.98a5.867,5.867,0,0,0-.421,2.516,6.6,6.6,0,0,0,1.986,3.755,6.594,6.594,0,0,0,3.4,1.781,9.428,9.428,0,0,0,2.551.213,7.8,7.8,0,0,0,1.206-.238,1.09,1.09,0,0,1,.962.242,7.867,7.867,0,0,0,5.087,1.3,8.021,8.021,0,0,0,4.541-1.542c1.382-1.173,1.345-2.8,1.009-4.541.347.176,1.305.288.729-.407a3.134,3.134,0,0,0-.949-.552,3.5,3.5,0,0,1-.95-.742c-1.069-1.242-.01-3.752,1.322-4.159,1.98-.6,2.439,2.236,3.859,2.978.816.427,1.665-.145,2.271-.731a9.1,9.1,0,0,0,1.838-2.889c.391-.874.755-1.761,1.153-2.63.186-.406.832-1.553.5-2.016a6.1,6.1,0,0,1,4.232,1.118A2.958,2.958,0,0,1,37.3,10.74c.058.123.186.488.344.5.294.029.182-.335.152-.508" transform="translate(0 0)" fill="#191847" fill-rule="evenodd"/>
      </g>
      <g id="Body_Hoodie" data-name="Body/Hoodie" transform="translate(15.854 32.431) rotate(1)">
        <path id="Skin" d="M75.876-.18,91.361,11.409a41.269,41.269,0,0,1,10.525,4.313c.666.618,1.47,1.87-1.289,1.652s-5.672-.32-6.052.639,1.29,2.107.521,3.4q-.769,1.294-7.276-6.493L72.457,8.438ZM16.44.194,26.581.239Q17.2,31.131,16.453,33.022c-1.122,2.835,1.256,7.155,2.273,9.476-3.309,1.508-2.959-4.081-7.133-2.1C7.783,42.2,4.885,45.471.481,42.7a1.544,1.544,0,0,1,.3-2.623c3.57-2.493,8.714-6.857,9.408-8.294Q11.608,28.845,16.44.194Z" transform="translate(-0.131 47.47)" fill="#b28b67" fill-rule="evenodd"/>
        <path id="Coat-Back" d="M-.017,1.036,4.1-.058c16.711,12.3,25.388,37.975,45.622,50.213l-4.068,6.178C12.3,55.044,1.316,23.764-.017,1.036Z" transform="translate(45.219 3.285) rotate(5)" fill="#e87613" fill-rule="evenodd"/>
        <path id="Shirt" d="M-.155,56.334l37.131.016c1.7,0,1.376-2.5,1.13-3.756C35.27,38.055,24.213,22.379,24.2,1.684L13.494-.032C4.641,14.482,1.585,32.354-.155,56.334Z" transform="translate(26.995 1.709)" fill="#dde3e9" fill-rule="evenodd"/>
        <path id="Coat-Front" d="M17.12,15.965a6.163,6.163,0,0,1-3.7-3.189C9.506,5.577,10.918,1.615,15.1.314S23.016,1.7,29.681,1.7a6.587,6.587,0,0,1,1,.07l3.353.2q14.45,49.836,7.986,66.5L12.792,68.45A102.292,102.292,0,0,1,7.825,78.832l-7.963,0Q-1.278,41.791,17.12,15.965Z" transform="translate(10.001 -0.024)" fill="#ff9b21" fill-rule="evenodd"/>
        <path id="Shade" d="M6.31-.015Q7.694,11.739,10.8,17.048l-10.846,0Q2.98,9.846,6.31-.015Z" transform="translate(22.84 51.383)" fill="rgba(0,0,0,0.1)" fill-rule="evenodd"/>
      </g>
    </g>
  </g>
</svg>
